<?xml version="1.0" encoding="utf-8"?>
<!-- Generator: Adobe Illustrator 24.3.0, SVG Export Plug-In . SVG Version: 6.00 Build 0)  -->
<svg version="1.1" id="레이어_1" xmlns="http://www.w3.org/2000/svg" xmlns:xlink="http://www.w3.org/1999/xlink" x="0px"
	 y="0px" viewBox="0 0 118.43 40" style="enable-background:new 0 0 118.43 40;" xml:space="preserve">
<style type="text/css">
	.st0{fill:#1E8EBB;}
	.st1{fill:#FFFFFF;}
	.st2{fill:#E8D92F;}
	.st3{fill:#D374A4;}
	.st4{fill:#2C98BD;}
	.st5{fill:#040000;}
	.st6{fill:#595857;}
</style>
<g>
	<g>
		<path class="st0" d="M21.3,2.8c0,0,0.92-2.55,3.02-2.5s2.05,2.26,2.05,2.26s0.09,1.56-2.68,2.8c0,0,4.62-0.01,6.88,4.91
			c1.24,2.7,0.97,6.69,2.59,9.38c1.62,2.69,4.26,3.13,3.72,8.04c-0.54,4.91-3.07,8.3-8.36,8.63c-5.28,0.32-9.17,3.77-14.29,3.67
			C9.11,39.88,2.91,38.8,2.91,31.31C2.91,23.81,0,20.09,0,17.72s1.83-7.39,7.23-7.39c2.7,0,4.15-2.8,7.28-3.88s5.23-1.08,5.23-1.08
			s-5.69-1.41-3.18-4.69C17.96-1.15,20.6,1.09,21.3,2.8z"/>
		<g>
			<path class="st1" d="M20.44,4.51c0,0-4.75-1.19-3.02-3.02C19.14-0.34,20.44,4.51,20.44,4.51z"/>
			<path class="st1" d="M22.11,4.51c0,0,1.13-4.8,2.97-3.02C26.91,3.27,22.11,4.51,22.11,4.51z"/>
		</g>
	</g>
	<g>
		<path class="st1" d="M10.62,16.71c2.49,0,4.45,1.32,4.45,3.81c0,2.49-1.96,3.79-4.45,3.79c-2.49,0-4.45-1.3-4.45-3.79
			C6.17,18.03,8.13,16.71,10.62,16.71z M9.58,27.19c-0.7,0-1.08-0.28-1.08-0.97c0-0.7,0.38-0.97,1.08-0.97h8.85
			c1.13,0,1.43,0.28,1.43,1.39v1.76c0,1.13-0.37,1.46-1.5,1.46h-7.13c-0.09,0-0.12,0.03-0.12,0.12v0.66c0,0.09,0.05,0.12,0.12,0.12
			h7.88c0.7,0,1.1,0.3,1.1,0.99c0,0.7-0.4,0.97-1.1,0.97H9.98c-1.13,0-1.48-0.33-1.48-1.46v-1.88c0-1.13,0.33-1.44,1.46-1.44h7.15
			c0.09,0,0.14-0.03,0.14-0.12v-0.5c0-0.09-0.05-0.12-0.14-0.12L9.58,27.19L9.58,27.19z M10.62,22.22c1.04,0,1.77-0.66,1.77-1.7
			s-0.73-1.72-1.77-1.72c-1.04,0-1.77,0.68-1.77,1.72C8.85,21.56,9.58,22.22,10.62,22.22z M17.07,17.85c0-0.82,0.57-1.27,1.39-1.27
			c0.82,0,1.39,0.45,1.39,1.27v5.48c0,0.82-0.57,1.27-1.39,1.27c-0.82,0-1.39-0.45-1.39-1.27V17.85z"/>
		<path class="st2" d="M26.56,23.38c-3.08,0-4.54-2.26-4.54-5.72s1.46-5.72,4.54-5.72c3.08,0,4.54,2.26,4.54,5.72
			S29.64,23.38,26.56,23.38z M28.39,17.66c0-1.88-0.43-3.39-1.83-3.39c-1.39,0-1.83,1.51-1.83,3.39s0.43,3.39,1.83,3.39
			S28.39,19.54,28.39,17.66z M33.15,12.58c0-0.83,0.57-1.29,1.39-1.29c0.83,0,1.39,0.45,1.39,1.29v13.56c0,0.83-0.56,1.29-1.39,1.29
			c-0.82,0-1.39-0.45-1.39-1.29V12.58z"/>
		<path class="st3" d="M39.9,24.79c-0.7,0.37-1.46,0.28-1.83-0.31c-0.38-0.63-0.19-1.29,0.5-1.76c1.74-1.17,2.8-2.45,2.8-4.16v-0.57
			c0-0.83,0.56-1.2,1.39-1.2s1.39,0.37,1.39,1.2v0.57c0,1.7,1.01,2.89,2.73,3.91c0.7,0.42,0.89,1.11,0.5,1.74
			c-0.37,0.59-1.13,0.66-1.83,0.31c-1.04-0.52-2.07-1.23-2.8-2.24C42.06,23.31,40.98,24.23,39.9,24.79z M41.9,32.61
			c-1.13,0-1.58-0.42-1.58-1.55v-3.55c0-1.13,0.45-1.53,1.58-1.53h7.95c1.13,0,1.56,0.4,1.56,1.53v3.55c0,1.13-0.43,1.55-1.56,1.55
			H41.9z M43.27,28.08c-0.1,0-0.17,0.07-0.17,0.17v2.1c0,0.1,0.07,0.17,0.17,0.17h5.18c0.1,0,0.17-0.07,0.17-0.17v-2.1
			c0-0.1-0.07-0.17-0.17-0.17H43.27z M48.63,17.84c0-0.82,0.57-1.25,1.39-1.25c0.82,0,1.39,0.43,1.39,1.25v1.76h1.2
			c0.73,0,1.25,0.37,1.25,1.15s-0.52,1.15-1.25,1.15h-1.2v1.96c0,0.82-0.57,1.27-1.39,1.27c-0.82,0-1.39-0.45-1.39-1.27V17.84z"/>
		<path class="st4" d="M60.33,18.41v2.28c0,2.17,0.97,3.81,3.04,5.49c0.59,0.49,0.78,1.03,0.54,1.63c-0.24,0.63-1.15,0.87-1.79,0.54
			c-1.25-0.64-2.5-1.96-3.18-2.97c-0.68,1.08-1.83,2.47-3.09,3.13c-0.66,0.33-1.46,0.19-1.79-0.4c-0.33-0.59-0.12-1.23,0.47-1.72
			c2.07-1.7,3.03-3.53,3.03-5.7v-2.28c0-0.63,0.49-1.18,1.39-1.18S60.33,17.78,60.33,18.41z M64.89,17.85
			c0-0.82,0.57-1.27,1.39-1.27c0.82,0,1.39,0.45,1.39,1.27v3.81h1.23c0.73,0,1.23,0.4,1.23,1.2c0,0.78-0.5,1.18-1.23,1.18h-1.23
			v7.41c0,0.82-0.57,1.27-1.39,1.27c-0.82,0-1.39-0.45-1.39-1.27V17.85z"/>
		<path class="st5" d="M72.38,19.73c-0.73,0-1.16-0.43-1.16-1.17s0.43-1.16,1.16-1.16h5.08c1.13,0,1.74,0.56,1.74,1.69v0.96
			c0,3.95-2.69,6.99-6.5,8.8c-0.64,0.3-1.43,0.23-1.81-0.5c-0.33-0.59-0.16-1.39,0.57-1.77c2.96-1.56,4.95-3.37,4.95-5.96v-0.47
			c0-0.31-0.05-0.4-0.4-0.4h-3.63V19.73z M81.8,17.85c0-0.82,0.57-1.27,1.39-1.27c0.82,0,1.39,0.45,1.39,1.27v13.6
			c0,0.82-0.57,1.27-1.39,1.27c-0.82,0-1.39-0.45-1.39-1.27V17.85z"/>
		<path class="st5" d="M87.56,30.72c-0.78,0-1.25-0.4-1.25-1.18s0.47-1.18,1.25-1.18h13.04c0.78,0,1.25,0.4,1.25,1.18
			s-0.47,1.18-1.25,1.18H87.56z M89.2,19.7c-0.75,0-1.25-0.4-1.25-1.15s0.5-1.15,1.25-1.15h9.77c0.75,0,1.25,0.4,1.25,1.15
			s-0.5,1.15-1.25,1.15H89.2z M89.3,26.22c-0.75,0-1.25-0.4-1.25-1.15s0.5-1.15,1.25-1.15h0.83c-0.1-0.64-0.16-1.41-0.16-2.05v-0.4
			c0-0.75,0.45-1.25,1.32-1.25c0.85,0,1.32,0.5,1.32,1.25v0.4c0,0.7,0,1.37,0.07,2.05h2.76c0.07-0.68,0.09-1.36,0.09-2.05v-0.4
			c0-0.75,0.47-1.25,1.32-1.25c0.87,0,1.32,0.5,1.32,1.25v0.4c0,0.64-0.05,1.41-0.16,2.05h0.83c0.75,0,1.25,0.4,1.25,1.15
			s-0.5,1.15-1.25,1.15H89.3z"/>
		<path class="st5" d="M103.78,30.72c-0.78,0-1.25-0.4-1.25-1.18s0.47-1.18,1.25-1.18h13.04c0.78,0,1.25,0.4,1.25,1.18
			s-0.47,1.18-1.25,1.18H103.78z M107.47,19.54c-0.19,0-0.24,0.05-0.24,0.24v0.97h7.39c0.73,0,1.2,0.35,1.2,1.08
			s-0.47,1.06-1.2,1.06h-7.39V24c0,0.19,0.05,0.24,0.24,0.24h7.58c0.73,0,1.2,0.38,1.2,1.11s-0.47,1.11-1.2,1.11h-8.8
			c-1.13,0-1.72-0.56-1.72-1.69v-5.79c0-1.13,0.59-1.69,1.72-1.69h8.62c0.73,0,1.2,0.38,1.2,1.11s-0.47,1.11-1.2,1.11h-7.4V19.54z"
			/>
	</g>
	<g>
		<path class="st6" d="M43.33,10.21c-1.41,0.23-3.05,0.25-4.27,0.25l-0.07-0.53h0.43c0.15,0,0.3,0,0.46-0.01V7.5h-0.69V6.98h3.77
			V7.5h-0.7v2.33c0.35-0.02,0.7-0.05,1.03-0.09L43.33,10.21z M40.69,12.69h4.06v0.53h-4.7v-2.19h0.64V12.69z M40.51,9.9
			c0.37-0.01,0.75-0.02,1.12-0.04V7.49h-1.12V9.9z M45.48,8.47V9h-1.05v2.52h-0.64v-5.2h0.64v2.15H45.48z"/>
		<path class="st6" d="M52.57,10.05v0.52h-6.38v-0.52h2.87V9.18h0.64v0.87H52.57z M46.58,9c1.34-0.13,2.41-0.68,2.45-1.47h-2.18
			V7.02h2.21V6.28h0.64v0.74h2.21v0.51h-2.18c0.04,0.79,1.11,1.34,2.46,1.47l-0.2,0.5c-1.16-0.13-2.19-0.53-2.6-1.25
			c-0.42,0.72-1.46,1.12-2.61,1.25L46.58,9z M46.91,11.25h4.88v2.13h-0.64v-1.62h-4.24V11.25z"/>
		<path class="st6" d="M56.94,9.81v0.69h2.05v1.59h-4.14v0.7h4.35v0.5h-4.98v-1.67h4.13v-0.63h-4.16V10.5h2.1V9.81h-2.87V9.29h6.38
			v0.52L56.94,9.81L56.94,9.81z M58.98,8.7h-4.72V6.55h4.72V8.7z M58.35,7.07h-3.46v1.12h3.46V7.07z"/>
		<path class="st6" d="M64.38,10.3h-0.72V9.56h0.72V10.3z"/>
		<path class="st6" d="M74.65,10.26v0.51h-6.37v-0.51h2.87V9.71c-1.27-0.05-1.96-0.39-1.96-1c0-0.67,0.79-1.01,2.28-1.01
			c1.48,0,2.27,0.35,2.27,1.01c0,0.61-0.68,0.94-1.95,1v0.55H74.65z M74.28,7.42H68.6v-0.5h2.54V6.23h0.64v0.69h2.49L74.28,7.42
			L74.28,7.42z M73.87,12.29c0,0.7-0.86,1.07-2.41,1.07c-1.57,0-2.42-0.37-2.42-1.07c0-0.72,0.85-1.08,2.42-1.08
			C73.02,11.21,73.87,11.57,73.87,12.29z M73.21,12.29c0-0.4-0.61-0.61-1.74-0.61c-1.14,0-1.76,0.2-1.76,0.61
			c0,0.39,0.62,0.59,1.76,0.59S73.21,12.68,73.21,12.29z M71.47,9.26c1.01,0,1.59-0.2,1.59-0.55s-0.57-0.55-1.59-0.55
			c-1.05,0-1.6,0.2-1.6,0.55C69.87,9.06,70.42,9.26,71.47,9.26z"/>
		<path class="st6" d="M81.9,11.94v0.53h-6.39v-0.53h2.86v-1.52h-2.11v-3.6h0.64v1.26h3.6V6.82h0.63v3.6h-2.11v1.52H81.9z M76.9,9.9
			h3.6V8.6h-3.6V9.9z"/>
		<path class="st6" d="M86.25,9.81v0.69h2.05v1.59h-4.14v0.7h4.35v0.5h-4.98v-1.67h4.13v-0.63H83.5V10.5h2.1V9.81h-2.87V9.29h6.38
			v0.52L86.25,9.81L86.25,9.81z M88.3,8.7h-4.72V6.55h4.72V8.7z M87.66,7.07H84.2v1.12h3.46V7.07z"/>
		<path class="st6" d="M93.69,10.3h-0.72V9.56h0.72V10.3z"/>
		<path class="st6" d="M101.74,9.59c-0.97,0.21-1.79,0.25-3.28,0.25h-0.55V6.78h3.1V7.3h-2.46v2c1.39,0,2.19-0.05,3.11-0.24
			L101.74,9.59z M102.43,10.45h0.64v2.8h-4.44v-2.8h0.64v0.88h3.17v-0.88H102.43z M102.43,11.85h-3.17v0.88h3.17V11.85z M104.11,8.5
			h-1.05v1.57h-0.64V6.3h0.64v1.66h1.05V8.5z"/>
		<path class="st6" d="M105.68,11.13c0.75-0.01,1.45-0.04,2.3-0.19l0.06,0.53c-0.95,0.16-1.71,0.19-2.53,0.19h-0.45V9.03h1.8V7.62
			h-1.82V7.09h2.44v2.46h-1.8L105.68,11.13L105.68,11.13z M108.8,6.45h0.6v6.56h-0.6v-2.58h-0.92V9.91h0.92V8.68h-0.92V8.15h0.92
			V6.45z M110.81,6.32v7.05h-0.62V6.32H110.81z"/>
		<path class="st6" d="M115.57,10.25v0.83h2.08v2.2h-4.81v-2.2h2.08v-0.83h-2.87V9.73h6.38v0.52H115.57z M113.72,7.07h-1.06V6.55
			h5.17v0.52h-1.07v1.48h1.04v0.52h-5.12V8.55h1.04L113.72,7.07L113.72,7.07z M117.03,11.59h-3.55v1.17h3.55V11.59z M116.12,7.07
			h-1.75v1.48h1.75V7.07z"/>
	</g>
	<g>
		<path class="st1" d="M21.54,33.53c0-0.37,0.24-0.71,0.64-0.97v-0.03c-0.23-0.13-0.39-0.36-0.39-0.7c0-0.35,0.26-0.64,0.48-0.79
			v-0.03c-0.28-0.23-0.56-0.64-0.56-1.15c0-0.94,0.75-1.53,1.6-1.53c0.24,0,0.45,0.06,0.6,0.11h1.49v0.55h-0.87
			c0.21,0.2,0.35,0.51,0.35,0.88c0,0.91-0.7,1.49-1.56,1.49c-0.23,0-0.44-0.05-0.64-0.15c-0.16,0.13-0.27,0.27-0.27,0.51
			c0,0.28,0.17,0.46,0.75,0.46h0.83c1.01,0,1.49,0.31,1.49,1.01c0,0.79-0.83,1.48-2.15,1.48C22.26,34.68,21.54,34.27,21.54,33.53z
			 M24.77,33.31c0-0.4-0.31-0.53-0.87-0.53h-0.74c-0.16,0-0.36-0.02-0.55-0.07c-0.31,0.22-0.44,0.47-0.44,0.72
			c0,0.47,0.46,0.75,1.24,0.75C24.23,34.19,24.77,33.76,24.77,33.31z M24.21,29.86c0-0.63-0.4-1-0.9-1s-0.91,0.37-0.91,1
			c0,0.62,0.42,1.01,0.91,1.01C23.79,30.87,24.21,30.48,24.21,29.86z"/>
		<path class="st1" d="M26.16,32.71v-4.27h0.72v4.27H26.16z M26.89,27.57h-0.72v-0.74h0.72V27.57z"/>
		<path class="st1" d="M30.11,27.04c-0.19-0.07-0.35-0.11-0.48-0.11c-0.4,0-0.61,0.28-0.61,0.84v0.68h0.9v0.58h-0.9v3.69H28.3v-3.69
			h-0.58v-0.54l0.58-0.04v-0.68c0-0.89,0.39-1.41,1.24-1.41c0.26,0,0.5,0.06,0.72,0.14L30.11,27.04z"/>
		<path class="st1" d="M30.87,31.39v-2.37h-0.64v-0.54l0.67-0.04l0.09-1.19h0.6v1.19h1.16v0.58h-1.16v2.38
			c0,0.53,0.16,0.83,0.66,0.83c0.15,0,0.34-0.05,0.49-0.11l0.14,0.53c-0.24,0.09-0.53,0.16-0.79,0.16
			C31.18,32.82,30.87,32.25,30.87,31.39z"/>
	</g>
</g>
</svg>
